<svg width="2945" height="2945" viewBox="0 0 2945 2945" fill="none" xmlns="http://www.w3.org/2000/svg">
<g clip-path="url(#clip0_8_675)">
<circle cx="1472.5" cy="1472.5" r="1472.5" fill="url(#paint0_linear_8_675)"/>
<circle cx="1472.5" cy="1472.5" r="1205.5" fill="white"/>
<mask id="mask0_8_675" style="mask-type:alpha" maskUnits="userSpaceOnUse" x="133" y="207" width="2679" height="2664">
<circle cx="1079" cy="2288" r="110" fill="#113043"/>
<circle cx="1079" cy="1957" r="65" fill="#113043"/>
<rect x="1037" y="2003" width="84" height="192" fill="#113043"/>
<circle cx="586" cy="946" r="84" fill="#113043"/>
<circle cx="1104" cy="1543" r="65" fill="#113043"/>
<circle cx="675" cy="1543" r="65" fill="#113043"/>
<circle cx="586" cy="728" r="70" fill="#113043"/>
<circle cx="1161" cy="538" r="71" fill="#113043" stroke="black" stroke-width="2"/>
<path d="M834.5 2110L696.5 2248L609 2335.5L650 2369.5L674 2392L922.5 2143.5V1817H1118.5C1143 1817 1159 1801.42 1159 1780C1159 1758.58 1143 1743 1118.5 1743C1012.28 1743 941.5 1743 846.5 1743C839.873 1743 834.5 1748.37 834.5 1755V2110Z" fill="#082A3C" stroke="#082A3C" stroke-width="7"/>
<path d="M717.5 2069V1581.5H629.5V2021L473 2177.5L541 2245.5L717.5 2069Z" fill="#082A3C" stroke="#082A3C" stroke-width="7"/>
<path d="M922.5 1510H1066.5V1584H829.5V1393H522V1477C522 1487.49 503 1496 503 1496H442.5V1412V1352C442.5 1326.04 463.543 1305 489.5 1305L603.327 1305C697.355 1305 787.091 1305 904 1305C914.217 1305 922.5 1313.28 922.5 1323.5V1510Z" fill="#082A3C" stroke="#082A3C" stroke-width="7"/>
<path d="M503 1863.5V1500V1420.5H203V1500V1863.5H503Z" fill="#082A3C" stroke="#082A3C" stroke-width="7"/>
<circle cx="306.5" cy="1131.5" r="173" fill="#113043" stroke="#082A3C"/>
<circle cx="872.5" cy="378.5" r="171" fill="#082A3C" stroke="#082A3C"/>
<circle cx="421.5" cy="1962.5" r="135" fill="#082A3C" stroke="#082A3C"/>
<path d="M402 1085C402 1085 764.029 1085 996 1085C1024.5 1085 1046 1104.83 1046 1131.5C1046 1158.17 1024.5 1178 996 1178C764.029 1178 402 1178 402 1178V1085Z" fill="#113043"/>
<circle cx="872.5" cy="2566.5" r="173" fill="#123144" stroke="#082A3C"/>
<path d="M1132 2479H1022.5V2672L1473.5 2865V2355.5H1255.5L1132 2479Z" fill="#113043" stroke="#082A3C" stroke-width="7"/>
<path d="M1114.43 451.832H999V240H1514V580L1114.43 517.696V451.832Z" fill="#082834" stroke="#082A3C" stroke-width="7"/>
<circle cx="110" cy="110" r="110" transform="matrix(-1 0 0 1 1976 2178)" fill="#113043"/>
<circle cx="65" cy="65" r="65" transform="matrix(-1 0 0 1 1931 1892)" fill="#113043"/>
<rect width="84" height="192" transform="matrix(-1 0 0 1 1908 2003)" fill="#113043"/>
<circle cx="84" cy="84" r="84" transform="matrix(-1 0 0 1 2443 862)" fill="#113043"/>
<circle cx="65" cy="65" r="65" transform="matrix(-1 0 0 1 1906 1478)" fill="#113043"/>
<circle cx="65" cy="65" r="65" transform="matrix(-1 0 0 1 2335 1478)" fill="#113043"/>
<circle cx="70" cy="70" r="70" transform="matrix(-1 0 0 1 2429 658)" fill="#113043"/>
<circle cx="70" cy="70" r="71" transform="matrix(-1 0 0 1 1854 468)" fill="#113043" stroke="black" stroke-width="2"/>
<path d="M2110.5 2110L2248.5 2248L2336 2335.5L2295 2369.5L2271 2392L2022.5 2143.5V1817H1826.5C1802 1817 1786 1801.42 1786 1780C1786 1758.58 1802 1743 1826.5 1743C1932.72 1743 2013 1743 2098.5 1743C2105.13 1743 2110.5 1748.37 2110.5 1755V2110Z" fill="#082A3C" stroke="#082A3C" stroke-width="7"/>
<path d="M2227.5 2069V1581.5H2315.5V2021L2472 2177.5L2404 2245.5L2227.5 2069Z" fill="#082A3C" stroke="#082A3C" stroke-width="7"/>
<path d="M2022.5 1510H1878.5V1584H2115.5V1393H2423V1477C2423 1491 2442 1496 2442 1496H2502.5V1412V1352C2502.5 1327 2485 1305 2455.5 1305C2348.59 1305 2265.77 1305 2179.8 1305L2041 1305C2032 1305 2022.5 1313 2022.5 1323.5V1510Z" fill="#082A3C" stroke="#082A3C" stroke-width="7"/>
<path d="M2442 1863.5V1500V1420.5H2742V1500V1863.5H2442Z" fill="#082A3C" stroke="#082A3C" stroke-width="7"/>
<circle cx="173.5" cy="173.5" r="173" transform="matrix(-1 0 0 1 2812 958)" fill="#113043" stroke="#082A3C"/>
<circle cx="171.5" cy="171.5" r="171" transform="matrix(-1 0 0 1 2244 207)" fill="#082A3C" stroke="#082A3C"/>
<circle cx="135.5" cy="135.5" r="135" transform="matrix(-1 0 0 1 2659 1827)" fill="#082A3C" stroke="#082A3C"/>
<path d="M2543 1085C2543 1085 2180.97 1085 1949 1085C1920.5 1085 1899 1104.83 1899 1131.5C1899 1158.17 1920.5 1178 1949 1178C2180.97 1178 2543 1178 2543 1178V1085Z" fill="#113043"/>
<circle cx="173.5" cy="173.5" r="173" transform="matrix(-1 0 0 1 2246 2393)" fill="#123144" stroke="#082A3C"/>
<path d="M1813 2479H1922.5V2672L1471.5 2865V2355.5H1689.5L1813 2479Z" fill="#113043" stroke="#082A3C" stroke-width="7"/>
<path d="M1830.57 451.832H1946V240H1431V580L1830.57 517.696V451.832Z" fill="#082834" stroke="#082A3C" stroke-width="7"/>
<rect x="656" y="909" width="1633" height="74" fill="#113043"/>
</mask>
<g mask="url(#mask0_8_675)">
<circle cx="1472.5" cy="1472.5" r="1472.5" fill="url(#paint1_linear_8_675)"/>
</g>
<mask id="mask1_8_675" style="mask-type:alpha" maskUnits="userSpaceOnUse" x="656" y="895" width="1633" height="102">
<rect x="656" y="895" width="1633" height="102" fill="#113043"/>
</mask>
<g mask="url(#mask1_8_675)">
<ellipse cx="1472.5" cy="622" rx="790.5" ry="581" fill="white"/>
</g>
<circle cx="421.5" cy="1962.5" r="61" fill="white" stroke="white"/>
<circle cx="2522.5" cy="1962.5" r="61" fill="white" stroke="white"/>
<circle cx="334.5" cy="1691.5" r="105" fill="white" stroke="white"/>
<circle cx="2610.5" cy="1691.5" r="105" fill="white" stroke="white"/>
<circle cx="344.5" cy="1383.5" r="105" fill="white" stroke="white"/>
<circle cx="2599.5" cy="1382.5" r="105" fill="white" stroke="white"/>
<circle cx="306.5" cy="1131.5" r="71" fill="white" stroke="white"/>
<circle cx="2638.5" cy="1131.5" r="71" fill="white" stroke="white"/>
<circle cx="1140.5" cy="242.5" r="76" fill="white" stroke="white"/>
<circle cx="1804.5" cy="242.5" r="76" fill="white" stroke="white"/>
<circle cx="872.5" cy="378.5" r="76" fill="white" stroke="white"/>
<circle cx="2072.5" cy="378.5" r="76" fill="white" stroke="white"/>
<circle cx="872.5" cy="2566.5" r="76" fill="white" stroke="white"/>
<circle cx="2072.5" cy="2566.5" r="76" fill="white" stroke="white"/>
<circle cx="1472.5" cy="190.5" r="76" fill="white" stroke="white"/>
<circle cx="1472.5" cy="543.5" r="239" fill="white" stroke="white"/>
<circle cx="1472" cy="2431" r="236" fill="white"/>
<circle cx="1472" cy="2431" r="236" fill="white"/>
<rect x="1353" y="2476" width="238" height="238" fill="white"/>
<circle cx="1472" cy="2696" r="119" fill="white"/>
<circle cx="1472" cy="2696" r="119" fill="white"/>
<path d="M1472.5 428.5C1536.57 428.5 1588.5 479.991 1588.5 543.5C1588.5 607.009 1536.57 658.5 1472.5 658.5C1408.43 658.5 1356.5 607.009 1356.5 543.5C1356.5 479.991 1408.43 428.5 1472.5 428.5Z" fill="url(#paint2_radial_8_675)" stroke="#082A3C"/>
<path d="M1448.09 452.991C1456.42 451.391 1467.68 454.958 1471.02 466.638C1472.69 472.47 1471.23 477.605 1468.32 481.646C1465.39 485.698 1461 488.64 1456.84 490.026C1453.92 491.001 1445.25 492.04 1436.65 500.646C1432.3 504.992 1430.77 509.6 1430.01 513.85C1429.63 515.957 1429.44 518.008 1429.19 519.848C1428.94 521.708 1428.64 523.372 1428.04 524.808C1423.84 534.896 1412.9 539.916 1403.69 536.039C1399.05 534.082 1396.02 531.164 1394.2 527.407C1392.38 523.636 1391.75 518.978 1392 513.522C1392.49 502.626 1397.46 486.251 1409.85 473.854C1422.27 461.437 1439.67 454.61 1448.09 452.991Z" fill="white" stroke="#082834"/>
<mask id="mask2_8_675" style="mask-type:alpha" maskUnits="userSpaceOnUse" x="755" y="688" width="1434" height="2032">
<circle cx="1472.5" cy="757.5" r="67" stroke="#082A3C" stroke-width="3"/>
<path d="M1516.49 804.5C1516.49 805.022 1516.48 805.724 1516.47 806.669L1502.5 2686.99V2687C1502.5 2693.51 1498.86 2701.28 1493.09 2707.48C1487.33 2713.66 1479.7 2718 1472 2718C1464.3 2718 1456.7 2713.67 1450.95 2707.48C1445.19 2701.29 1441.55 2693.5 1441.5 2686.99C1441.47 2683.31 1441.44 2679.64 1441.42 2675.97C1441.39 2672.31 1441.36 2668.65 1441.34 2665C1441.31 2661.35 1441.28 2657.7 1441.25 2654.07C1441.23 2650.43 1441.2 2646.8 1441.17 2643.18C1441.15 2639.55 1441.12 2635.94 1441.09 2632.33C1441.07 2628.72 1441.04 2625.12 1441.01 2621.53C1440.99 2617.93 1440.96 2614.35 1440.93 2610.77C1440.91 2607.19 1440.88 2603.62 1440.85 2600.05C1440.83 2596.48 1440.8 2592.93 1440.77 2589.37C1440.75 2585.82 1440.72 2582.28 1440.7 2578.74C1440.67 2575.2 1440.64 2571.67 1440.62 2568.15C1440.59 2564.63 1440.56 2561.11 1440.54 2557.6C1440.51 2554.09 1440.49 2550.59 1440.46 2547.09C1440.43 2543.6 1440.41 2540.11 1440.38 2536.63C1440.36 2533.15 1440.33 2529.67 1440.31 2526.21L1440.23 2515.83C1440.2 2512.37 1440.18 2508.93 1440.15 2505.49C1440.13 2502.05 1440.1 2498.61 1440.07 2495.19C1440.05 2491.76 1440.02 2488.35 1440 2484.93C1439.97 2481.52 1439.95 2478.12 1439.92 2474.72C1439.9 2471.32 1439.87 2467.93 1439.85 2464.55C1439.82 2461.16 1439.8 2457.79 1439.77 2454.42C1439.75 2451.05 1439.72 2447.68 1439.7 2444.33C1439.67 2440.97 1439.65 2437.62 1439.62 2434.28C1439.6 2430.93 1439.57 2427.6 1439.55 2424.27C1439.52 2420.94 1439.5 2417.62 1439.47 2414.3C1439.45 2410.99 1439.42 2407.68 1439.4 2404.38C1439.37 2401.07 1439.35 2397.78 1439.33 2394.49C1439.3 2391.2 1439.28 2387.92 1439.25 2384.65C1439.23 2381.37 1439.2 2378.1 1439.18 2374.84C1439.16 2371.58 1439.13 2368.33 1439.11 2365.08C1439.08 2361.83 1439.06 2358.59 1439.03 2355.36C1439.01 2352.12 1438.99 2348.9 1438.96 2345.67C1438.94 2342.45 1438.92 2339.24 1438.89 2336.03C1438.87 2332.83 1438.84 2329.63 1438.82 2326.43C1438.8 2323.24 1438.77 2320.05 1438.75 2316.87C1438.73 2313.69 1438.7 2310.52 1438.68 2307.35C1438.65 2304.18 1438.63 2301.02 1438.61 2297.87C1438.58 2294.71 1438.56 2291.57 1438.54 2288.43C1438.51 2285.29 1438.49 2282.15 1438.47 2279.03C1438.45 2275.9 1438.42 2272.78 1438.4 2269.66C1438.38 2266.55 1438.35 2263.44 1438.33 2260.34C1438.31 2257.24 1438.28 2254.15 1438.26 2251.06C1438.24 2247.97 1438.21 2244.89 1438.19 2241.82C1438.17 2238.74 1438.15 2235.67 1438.12 2232.61C1438.1 2229.55 1438.08 2226.5 1438.06 2223.45C1438.03 2220.4 1438.01 2217.36 1437.99 2214.32C1437.96 2211.29 1437.94 2208.26 1437.92 2205.24C1437.9 2202.22 1437.87 2199.2 1437.85 2196.19C1437.83 2193.18 1437.81 2190.18 1437.79 2187.18C1437.76 2184.19 1437.74 2181.2 1437.72 2178.21C1437.7 2175.23 1437.68 2172.25 1437.65 2169.28C1437.63 2166.31 1437.61 2163.35 1437.59 2160.39C1437.56 2157.44 1437.54 2154.48 1437.52 2151.54C1437.5 2148.6 1437.48 2145.66 1437.45 2142.73C1437.43 2139.8 1437.41 2136.87 1437.39 2133.95C1437.37 2131.03 1437.35 2128.12 1437.32 2125.21C1437.3 2122.31 1437.28 2119.41 1437.26 2116.51C1437.24 2113.62 1437.22 2110.73 1437.2 2107.85C1437.17 2104.97 1437.15 2102.1 1437.13 2099.23C1437.11 2096.36 1437.09 2093.5 1437.07 2090.65C1437.05 2087.79 1437.03 2084.94 1437 2082.1C1436.98 2079.26 1436.96 2076.42 1436.94 2073.59C1436.92 2070.76 1436.9 2067.94 1436.88 2065.12C1436.86 2062.3 1436.84 2059.49 1436.82 2056.69C1436.8 2053.88 1436.77 2051.09 1436.75 2048.29C1436.73 2045.5 1436.71 2042.72 1436.69 2039.94C1436.67 2037.16 1436.65 2034.38 1436.63 2031.62C1436.61 2028.85 1436.59 2026.09 1436.57 2023.33C1436.55 2020.58 1436.53 2017.83 1436.51 2015.09C1436.49 2012.34 1436.47 2009.61 1436.45 2006.88C1436.43 2004.15 1436.41 2001.43 1436.39 1998.71C1436.37 1995.99 1436.35 1993.28 1436.32 1990.57C1436.3 1987.87 1436.28 1985.17 1436.26 1982.48C1436.24 1979.78 1436.22 1977.1 1436.2 1974.42C1436.18 1971.74 1436.17 1969.06 1436.15 1966.39C1436.13 1963.72 1436.11 1961.06 1436.09 1958.41C1436.07 1955.75 1436.05 1953.1 1436.03 1950.46C1436.01 1947.81 1435.99 1945.17 1435.97 1942.54C1435.95 1939.91 1435.93 1937.28 1435.91 1934.67C1435.89 1932.05 1435.87 1929.43 1435.85 1926.83C1435.83 1924.22 1435.81 1921.62 1435.79 1919.02C1435.77 1916.43 1435.75 1913.84 1435.74 1911.25C1435.72 1908.67 1435.7 1906.09 1435.68 1903.52C1435.66 1900.95 1435.64 1898.38 1435.62 1895.82C1435.6 1893.26 1435.58 1890.71 1435.56 1888.16C1435.54 1885.62 1435.53 1883.08 1435.51 1880.54C1435.49 1878 1435.47 1875.47 1435.45 1872.95C1435.43 1870.43 1435.41 1867.91 1435.39 1865.4C1435.38 1862.89 1435.36 1860.38 1435.34 1857.88C1435.32 1855.38 1435.3 1852.89 1435.28 1850.4C1435.26 1847.91 1435.25 1845.43 1435.23 1842.95C1435.21 1840.48 1435.19 1838.01 1435.17 1835.54C1435.15 1833.08 1435.14 1830.62 1435.12 1828.17C1435.1 1825.72 1435.08 1823.27 1435.06 1820.83C1435.05 1818.39 1435.03 1815.95 1435.01 1813.52C1434.99 1811.09 1434.97 1808.67 1434.95 1806.25C1434.94 1803.84 1434.92 1801.42 1434.9 1799.02C1434.88 1796.61 1434.87 1794.21 1434.85 1791.82C1434.83 1789.42 1434.81 1787.04 1434.79 1784.65C1434.78 1782.27 1434.76 1779.89 1434.74 1777.52L1434.69 1770.43C1434.67 1768.07 1434.65 1765.71 1434.64 1763.36C1434.62 1761.02 1434.6 1758.67 1434.58 1756.34C1434.57 1754 1434.55 1751.67 1434.53 1749.34C1434.51 1747.02 1434.5 1744.7 1434.48 1742.39C1434.46 1740.07 1434.45 1737.76 1434.43 1735.46C1434.41 1733.16 1434.39 1730.86 1434.38 1728.57C1434.36 1726.28 1434.34 1724 1434.33 1721.72C1434.31 1719.44 1434.29 1717.16 1434.28 1714.89C1434.26 1712.63 1434.24 1710.36 1434.23 1708.1C1434.21 1705.85 1434.19 1703.6 1434.18 1701.35C1434.16 1699.1 1434.14 1696.86 1434.13 1694.63C1434.11 1692.39 1434.09 1690.17 1434.08 1687.94C1434.06 1685.72 1434.04 1683.5 1434.03 1681.29C1434.01 1679.08 1433.99 1676.87 1433.98 1674.67C1433.96 1672.47 1433.94 1670.27 1433.93 1668.08C1433.91 1665.89 1433.9 1663.71 1433.88 1661.53C1433.86 1659.35 1433.85 1657.17 1433.83 1655.01C1433.81 1652.84 1433.8 1650.68 1433.78 1648.52C1433.77 1646.36 1433.75 1644.21 1433.74 1642.07C1433.72 1639.92 1433.7 1637.78 1433.69 1635.64C1433.67 1633.51 1433.66 1631.38 1433.64 1629.25C1433.62 1627.13 1433.61 1625.01 1433.59 1622.9C1433.58 1620.79 1433.56 1618.68 1433.55 1616.58C1433.53 1614.47 1433.51 1612.38 1433.5 1610.29C1433.48 1608.19 1433.47 1606.11 1433.45 1604.03C1433.44 1601.95 1433.42 1599.87 1433.41 1597.8C1433.39 1595.73 1433.38 1593.67 1433.36 1591.61C1433.34 1589.55 1433.33 1587.5 1433.31 1585.45C1433.3 1583.4 1433.28 1581.36 1433.27 1579.32C1433.25 1577.28 1433.24 1575.25 1433.22 1573.22C1433.21 1571.19 1433.19 1569.17 1433.18 1567.16C1433.16 1565.14 1433.15 1563.13 1433.13 1561.12C1433.12 1559.12 1433.1 1557.12 1433.09 1555.12C1433.07 1553.13 1433.06 1551.14 1433.04 1549.15C1433.03 1547.17 1433.02 1545.19 1433 1543.22C1432.99 1541.24 1432.97 1539.27 1432.96 1537.31C1432.94 1535.35 1432.93 1533.39 1432.91 1531.44C1432.9 1529.48 1432.88 1527.53 1432.87 1525.59C1432.85 1523.65 1432.84 1521.71 1432.83 1519.78C1432.81 1517.85 1432.8 1515.92 1432.78 1514C1432.77 1512.08 1432.76 1510.16 1432.74 1508.25C1432.73 1506.34 1432.71 1504.43 1432.7 1502.53C1432.68 1500.63 1432.67 1498.74 1432.66 1496.84C1432.64 1494.95 1432.63 1493.07 1432.61 1491.19C1432.6 1489.31 1432.59 1487.43 1432.57 1485.56C1432.56 1483.69 1432.54 1481.83 1432.53 1479.97C1432.52 1478.11 1432.5 1476.25 1432.49 1474.4C1432.48 1472.55 1432.46 1470.71 1432.45 1468.87C1432.43 1467.03 1432.42 1465.2 1432.41 1463.37C1432.39 1461.54 1432.38 1459.71 1432.37 1457.89C1432.35 1456.08 1432.34 1454.26 1432.33 1452.45C1432.31 1450.64 1432.3 1448.84 1432.29 1447.04C1432.27 1445.24 1432.26 1443.45 1432.25 1441.66C1432.23 1439.87 1432.22 1438.08 1432.21 1436.31C1432.19 1434.53 1432.18 1432.75 1432.17 1430.98C1432.15 1429.21 1432.14 1427.45 1432.13 1425.69C1432.11 1423.93 1432.1 1422.18 1432.09 1420.43C1432.07 1418.68 1432.06 1416.94 1432.05 1415.2C1432.04 1413.46 1432.02 1411.72 1432.01 1409.99C1432 1408.26 1431.99 1406.54 1431.97 1404.82C1431.96 1403.1 1431.95 1401.39 1431.93 1399.68C1431.92 1397.97 1431.91 1396.26 1431.9 1394.56C1431.88 1392.86 1431.87 1391.17 1431.86 1389.48C1431.85 1387.79 1431.83 1386.1 1431.82 1384.42C1431.81 1382.74 1431.8 1381.07 1431.78 1379.39C1431.77 1377.72 1431.76 1376.06 1431.75 1374.4C1431.73 1372.74 1431.72 1371.08 1431.71 1369.43C1431.7 1367.78 1431.68 1366.13 1431.67 1364.49C1431.66 1362.85 1431.65 1361.21 1431.64 1359.58C1431.62 1357.95 1431.61 1356.32 1431.6 1354.7C1431.59 1353.07 1431.58 1351.45 1431.56 1349.84C1431.55 1348.23 1431.54 1346.62 1431.53 1345.02C1431.52 1343.41 1431.5 1341.81 1431.49 1340.22C1431.48 1338.63 1431.47 1337.04 1431.46 1335.45C1431.45 1333.87 1431.43 1332.29 1431.42 1330.71C1431.41 1329.14 1431.4 1327.56 1431.39 1326C1431.37 1324.43 1431.36 1322.87 1431.35 1321.32C1431.34 1319.76 1431.33 1318.21 1431.32 1316.66C1431.31 1315.11 1431.29 1313.57 1431.28 1312.03L1431.25 1307.43C1431.24 1305.9 1431.23 1304.38 1431.21 1302.86C1431.2 1301.34 1431.19 1299.83 1431.18 1298.32C1431.17 1296.81 1431.16 1295.3 1431.15 1293.8C1431.14 1292.3 1431.13 1290.8 1431.11 1289.31C1431.1 1287.82 1431.09 1286.33 1431.08 1284.85C1431.07 1283.37 1431.06 1281.89 1431.05 1280.42C1431.04 1278.94 1431.03 1277.47 1431.01 1276.01C1431 1274.54 1430.99 1273.08 1430.98 1271.63C1430.97 1270.17 1430.96 1268.72 1430.95 1267.28C1430.94 1265.83 1430.93 1264.39 1430.92 1262.95C1430.91 1261.51 1430.9 1260.08 1430.89 1258.65C1430.87 1257.22 1430.86 1255.8 1430.85 1254.38C1430.84 1252.96 1430.83 1251.55 1430.82 1250.13C1430.81 1248.72 1430.8 1247.32 1430.79 1245.92C1430.78 1244.51 1430.77 1243.12 1430.76 1241.72C1430.75 1240.33 1430.74 1238.94 1430.73 1237.56C1430.72 1236.18 1430.71 1234.8 1430.7 1233.42C1430.69 1232.05 1430.68 1230.67 1430.67 1229.31C1430.66 1227.94 1430.65 1226.58 1430.64 1225.22C1430.63 1223.86 1430.62 1222.51 1430.61 1221.16C1430.6 1219.81 1430.59 1218.47 1430.58 1217.13C1430.57 1215.79 1430.56 1214.45 1430.55 1213.12C1430.54 1211.79 1430.53 1210.46 1430.52 1209.14C1430.51 1207.82 1430.5 1206.5 1430.49 1205.18C1430.48 1203.87 1430.47 1202.56 1430.46 1201.25C1430.45 1199.95 1430.44 1198.64 1430.43 1197.35C1430.42 1196.05 1430.41 1194.76 1430.4 1193.47C1430.39 1192.18 1430.38 1190.9 1430.37 1189.62C1430.36 1188.34 1430.35 1187.06 1430.34 1185.79C1430.34 1184.52 1430.33 1183.25 1430.32 1181.99C1430.31 1180.72 1430.3 1179.46 1430.29 1178.21C1430.28 1176.95 1430.27 1175.7 1430.26 1174.46C1430.25 1173.21 1430.24 1171.97 1430.23 1170.73C1430.22 1169.49 1430.21 1168.26 1430.2 1167.03C1430.2 1165.8 1430.19 1164.57 1430.18 1163.35C1430.17 1162.13 1430.16 1160.91 1430.15 1159.7C1430.14 1158.48 1430.13 1157.27 1430.12 1156.07C1430.11 1154.86 1430.11 1153.66 1430.1 1152.47C1430.09 1151.27 1430.08 1150.08 1430.07 1148.89C1430.06 1147.7 1430.05 1146.52 1430.04 1145.33C1430.03 1144.15 1430.03 1142.98 1430.02 1141.81C1430.01 1140.63 1430 1139.46 1429.99 1138.3C1429.98 1137.14 1429.97 1135.98 1429.97 1134.82C1429.96 1133.66 1429.95 1132.51 1429.94 1131.36C1429.93 1130.22 1429.92 1129.07 1429.91 1127.93C1429.91 1126.79 1429.9 1125.65 1429.89 1124.52C1429.88 1123.39 1429.87 1122.26 1429.86 1121.14C1429.86 1120.01 1429.85 1118.89 1429.84 1117.78C1429.83 1116.66 1429.82 1115.55 1429.81 1114.44C1429.81 1113.33 1429.8 1112.23 1429.79 1111.13C1429.78 1110.03 1429.77 1108.93 1429.77 1107.84C1429.76 1106.74 1429.75 1105.66 1429.74 1104.57C1429.73 1103.49 1429.72 1102.41 1429.72 1101.33C1429.71 1100.25 1429.7 1099.18 1429.69 1098.11C1429.69 1097.04 1429.68 1095.97 1429.67 1094.91C1429.66 1093.85 1429.65 1092.79 1429.65 1091.74C1429.64 1090.69 1429.63 1089.64 1429.62 1088.59C1429.61 1087.54 1429.61 1086.5 1429.6 1085.46C1429.59 1084.42 1429.58 1083.39 1429.58 1082.36C1429.57 1081.33 1429.56 1080.3 1429.55 1079.28C1429.54 1078.25 1429.54 1077.23 1429.53 1076.22C1429.52 1075.2 1429.52 1074.19 1429.51 1073.18C1429.5 1072.17 1429.49 1071.17 1429.49 1070.17C1429.48 1069.17 1429.47 1068.17 1429.46 1067.18C1429.46 1066.19 1429.45 1065.2 1429.44 1064.21C1429.43 1063.22 1429.43 1062.24 1429.42 1061.26C1429.41 1060.29 1429.4 1059.31 1429.4 1058.34C1429.39 1057.37 1429.38 1056.4 1429.38 1055.44C1429.37 1054.47 1429.36 1053.51 1429.35 1052.56C1429.35 1051.6 1429.34 1050.65 1429.33 1049.7C1429.33 1048.75 1429.32 1047.81 1429.31 1046.87C1429.31 1045.92 1429.3 1044.99 1429.29 1044.05C1429.28 1043.12 1429.28 1042.19 1429.27 1041.26C1429.26 1040.33 1429.26 1039.41 1429.25 1038.49C1429.24 1037.57 1429.24 1036.65 1429.23 1035.74C1429.22 1034.83 1429.22 1033.92 1429.21 1033.01C1429.2 1032.11 1429.2 1031.2 1429.19 1030.31C1429.18 1029.41 1429.18 1028.51 1429.17 1027.62C1429.16 1026.73 1429.16 1025.84 1429.15 1024.96C1429.14 1024.07 1429.14 1023.19 1429.13 1022.32C1429.12 1021.44 1429.12 1020.56 1429.11 1019.69C1429.1 1018.82 1429.1 1017.96 1429.09 1017.09C1429.08 1016.23 1429.08 1015.37 1429.07 1014.51C1429.07 1013.66 1429.06 1012.8 1429.05 1011.96C1429.05 1011.11 1429.04 1010.26 1429.03 1009.42C1429.03 1008.57 1429.02 1007.74 1429.02 1006.9C1429.01 1006.06 1429 1005.23 1429 1004.4C1428.99 1003.57 1428.98 1002.75 1428.98 1001.93C1428.97 1001.1 1428.97 1000.29 1428.96 999.471C1428.95 998.656 1428.95 997.844 1428.94 997.035C1428.94 996.227 1428.93 995.421 1428.92 994.619C1428.92 993.817 1428.91 993.019 1428.91 992.224C1428.9 991.429 1428.89 990.637 1428.89 989.849C1428.88 989.06 1428.88 988.275 1428.87 987.493C1428.87 986.712 1428.86 985.933 1428.85 985.158C1428.85 984.383 1428.84 983.61 1428.84 982.842C1428.83 982.073 1428.82 981.308 1428.82 980.546C1428.81 979.784 1428.81 979.025 1428.8 978.27C1428.8 977.514 1428.79 976.762 1428.79 976.013C1428.78 975.264 1428.77 974.518 1428.77 973.775C1428.76 973.033 1428.76 972.294 1428.75 971.558C1428.75 970.822 1428.74 970.089 1428.74 969.359C1428.73 968.63 1428.72 967.903 1428.72 967.18C1428.71 966.456 1428.71 965.736 1428.7 965.02C1428.7 964.303 1428.69 963.589 1428.69 962.878C1428.68 962.167 1428.68 961.46 1428.67 960.756C1428.67 960.052 1428.66 959.35 1428.66 958.652C1428.65 957.954 1428.65 957.259 1428.64 956.567C1428.64 955.876 1428.63 955.187 1428.63 954.501C1428.62 953.816 1428.62 953.133 1428.61 952.454C1428.61 951.775 1428.6 951.098 1428.6 950.425C1428.59 949.752 1428.59 949.081 1428.58 948.414C1428.58 947.747 1428.57 947.083 1428.57 946.422C1428.56 945.761 1428.56 945.103 1428.55 944.448C1428.55 943.794 1428.54 943.142 1428.54 942.493C1428.53 941.844 1428.53 941.198 1428.52 940.556C1428.52 939.913 1428.51 939.273 1428.51 938.636C1428.5 937.999 1428.5 937.365 1428.49 936.734C1428.49 936.104 1428.48 935.475 1428.48 934.851C1428.47 934.226 1428.47 933.603 1428.47 932.984C1428.46 932.366 1428.46 931.75 1428.45 931.137C1428.45 930.524 1428.44 929.913 1428.44 929.306C1428.43 928.698 1428.43 928.094 1428.42 927.492C1428.42 926.891 1428.42 926.293 1428.41 925.697C1428.41 925.102 1428.4 924.509 1428.4 923.919C1428.39 923.329 1428.39 922.741 1428.39 922.157C1428.38 921.573 1428.38 920.991 1428.37 920.413C1428.37 919.835 1428.36 919.259 1428.36 918.687C1428.35 918.114 1428.35 917.544 1428.35 916.977C1428.34 916.41 1428.34 915.845 1428.33 915.284C1428.33 914.723 1428.33 914.164 1428.32 913.608C1428.32 913.053 1428.31 912.499 1428.31 911.949C1428.31 911.399 1428.3 910.851 1428.3 910.307C1428.29 909.762 1428.29 909.219 1428.28 908.68C1428.28 908.141 1428.28 907.604 1428.27 907.07C1428.27 906.537 1428.27 906.006 1428.26 905.478C1428.26 904.949 1428.25 904.424 1428.25 903.901C1428.25 903.379 1428.24 902.858 1428.24 902.341C1428.23 901.823 1428.23 901.308 1428.23 900.796C1428.22 900.284 1428.22 899.774 1428.22 899.268C1428.21 898.761 1428.21 898.257 1428.2 897.756C1428.2 897.255 1428.2 896.756 1428.19 896.26C1428.19 895.764 1428.19 895.27 1428.18 894.779C1428.18 894.289 1428.17 893.8 1428.17 893.314C1428.17 892.829 1428.16 892.346 1428.16 891.865C1428.16 891.385 1428.15 890.907 1428.15 890.432C1428.15 889.956 1428.14 889.484 1428.14 889.014C1428.14 888.544 1428.13 888.076 1428.13 887.611C1428.13 887.146 1428.12 886.683 1428.12 886.224C1428.11 885.764 1428.11 885.306 1428.11 884.852C1428.1 884.397 1428.1 883.945 1428.1 883.495C1428.1 883.045 1428.09 882.598 1428.09 882.153C1428.08 881.709 1428.08 881.267 1428.08 880.827C1428.07 880.387 1428.07 879.949 1428.07 879.515C1428.06 879.08 1428.06 878.648 1428.06 878.218C1428.06 877.788 1428.05 877.361 1428.05 876.936C1428.05 876.511 1428.04 876.088 1428.04 875.668C1428.04 875.248 1428.03 874.83 1428.03 874.415C1428.03 874 1428.02 873.587 1428.02 873.177C1428.02 872.766 1428.02 872.358 1428.01 871.952C1428.01 871.546 1428.01 871.143 1428 870.742C1428 870.341 1428 869.943 1427.99 869.547C1427.99 869.151 1427.99 868.757 1427.99 868.365C1427.98 867.974 1427.98 867.585 1427.98 867.198C1427.97 866.811 1427.97 866.426 1427.97 866.044C1427.97 865.662 1427.96 865.283 1427.96 864.905C1427.96 864.528 1427.95 864.152 1427.95 863.779C1427.95 863.406 1427.95 863.035 1427.94 862.667C1427.94 862.299 1427.94 861.932 1427.94 861.568C1427.93 861.205 1427.93 860.843 1427.93 860.484C1427.92 860.125 1427.92 859.768 1427.92 859.413C1427.92 859.058 1427.91 858.705 1427.91 858.354C1427.91 858.004 1427.91 857.656 1427.9 857.311C1427.9 856.965 1427.9 856.62 1427.9 856.278C1427.89 855.937 1427.89 855.598 1427.89 855.261C1427.89 854.924 1427.88 854.588 1427.88 854.255C1427.88 853.922 1427.88 853.591 1427.87 853.263C1427.87 852.934 1427.87 852.608 1427.87 852.284C1427.86 851.96 1427.86 851.637 1427.86 851.317C1427.86 850.997 1427.85 850.679 1427.85 850.363C1427.85 850.047 1427.85 849.733 1427.84 849.422C1427.84 849.11 1427.84 848.801 1427.84 848.493C1427.84 848.186 1427.83 847.88 1427.83 847.577C1427.83 847.274 1427.83 846.973 1427.82 846.674C1427.82 846.375 1427.82 846.077 1427.82 845.782C1427.82 845.487 1427.81 845.193 1427.81 844.902C1427.81 844.612 1427.81 844.323 1427.8 844.036C1427.8 843.749 1427.8 843.464 1427.8 843.181C1427.8 842.898 1427.79 842.616 1427.79 842.337C1427.79 842.058 1427.79 841.781 1427.79 841.506C1427.78 841.231 1427.78 840.958 1427.78 840.687C1427.78 840.415 1427.78 840.146 1427.77 839.879C1427.77 839.612 1427.77 839.346 1427.77 839.083C1427.77 838.82 1427.76 838.557 1427.76 838.298C1427.76 838.038 1427.76 837.78 1427.76 837.524C1427.75 837.269 1427.75 837.015 1427.75 836.763C1427.75 836.511 1427.75 836.261 1427.74 836.013C1427.74 835.764 1427.74 835.518 1427.74 835.273C1427.74 835.029 1427.74 834.786 1427.73 834.545C1427.73 834.304 1427.73 834.065 1427.73 833.828C1427.73 833.591 1427.73 833.356 1427.72 833.122C1427.72 832.889 1427.72 832.657 1427.72 832.427C1427.72 832.197 1427.72 831.968 1427.71 831.742C1427.71 831.516 1427.71 831.291 1427.71 831.068C1427.71 830.846 1427.71 830.624 1427.7 830.404C1427.7 830.185 1427.7 829.968 1427.7 829.752C1427.7 829.536 1427.7 829.322 1427.69 829.109C1427.69 828.897 1427.69 828.686 1427.69 828.478C1427.69 828.269 1427.69 828.062 1427.68 827.856C1427.68 827.651 1427.68 827.446 1427.68 827.244C1427.68 827.042 1427.68 826.842 1427.68 826.644C1427.67 826.445 1427.67 826.247 1427.67 826.052C1427.67 825.856 1427.67 825.663 1427.67 825.471C1427.67 825.279 1427.66 825.088 1427.66 824.899C1427.66 824.711 1427.66 824.523 1427.66 824.337C1427.66 824.151 1427.66 823.967 1427.65 823.785C1427.65 823.603 1427.65 823.421 1427.65 823.242C1427.65 823.063 1427.65 822.886 1427.65 822.71C1427.64 822.534 1427.64 822.359 1427.64 822.187C1427.64 822.014 1427.64 821.842 1427.64 821.672C1427.64 821.502 1427.64 821.334 1427.63 821.167C1427.63 821 1427.63 820.835 1427.63 820.671C1427.63 820.507 1427.63 820.345 1427.63 820.185C1427.63 820.024 1427.62 819.865 1427.62 819.707C1427.62 819.549 1427.62 819.393 1427.62 819.238C1427.62 819.084 1427.62 818.93 1427.62 818.778C1427.62 818.627 1427.62 818.476 1427.61 818.327C1427.61 818.178 1427.61 818.031 1427.61 817.885C1427.61 817.739 1427.61 817.594 1427.61 817.451C1427.61 817.308 1427.61 817.166 1427.6 817.025C1427.6 816.885 1427.6 816.746 1427.6 816.608C1427.6 816.471 1427.6 816.335 1427.6 816.2C1427.6 816.065 1427.6 815.932 1427.59 815.8C1427.59 815.668 1427.59 815.537 1427.59 815.408C1427.59 815.279 1427.59 815.15 1427.59 815.023C1427.59 814.897 1427.59 814.771 1427.59 814.647C1427.59 814.524 1427.58 814.401 1427.58 814.279C1427.58 814.158 1427.58 814.038 1427.58 813.919C1427.58 813.8 1427.58 813.683 1427.58 813.566C1427.58 813.45 1427.58 813.335 1427.58 813.222C1427.58 813.108 1427.57 812.996 1427.57 812.885C1427.57 812.774 1427.57 812.663 1427.57 812.555C1427.57 812.446 1427.57 812.339 1427.57 812.232C1427.57 812.126 1427.57 812.021 1427.57 811.917C1427.57 811.813 1427.56 811.711 1427.56 811.609C1427.56 811.508 1427.56 811.408 1427.56 811.309C1427.56 811.21 1427.56 811.111 1427.56 811.015C1427.56 810.918 1427.56 810.823 1427.56 810.729C1427.56 810.634 1427.56 810.54 1427.56 810.448C1427.55 810.356 1427.55 810.265 1427.55 810.176C1427.55 810.086 1427.55 809.997 1427.55 809.909C1427.55 809.822 1427.55 809.736 1427.55 809.65C1427.55 809.565 1427.55 809.481 1427.55 809.397C1427.55 809.314 1427.55 809.231 1427.55 809.15C1427.55 809.07 1427.54 808.99 1427.54 808.911C1427.54 808.832 1427.54 808.754 1427.54 808.677C1427.54 808.6 1427.54 808.524 1427.54 808.449C1427.54 808.375 1427.54 808.301 1427.54 808.229C1427.54 808.156 1427.54 808.083 1427.54 808.013C1427.54 807.942 1427.54 807.872 1427.54 807.804C1427.54 807.735 1427.53 807.667 1427.53 807.601C1427.53 807.534 1427.53 807.467 1427.53 807.402C1427.53 807.338 1427.53 807.274 1427.53 807.211C1427.53 807.148 1427.53 807.086 1427.53 807.024C1427.53 806.963 1427.53 806.903 1427.53 806.844C1427.53 806.785 1427.53 806.726 1427.53 806.669C1427.53 806.612 1427.53 806.555 1427.53 806.499C1427.53 806.443 1427.52 806.388 1427.52 806.334C1427.52 806.28 1427.52 806.227 1427.52 806.175C1427.52 806.123 1427.52 806.071 1427.52 806.021C1427.52 805.97 1427.52 805.921 1427.52 805.872C1427.52 805.823 1427.52 805.775 1427.52 805.728C1427.52 805.681 1427.52 805.634 1427.52 805.589C1427.52 805.543 1427.52 805.498 1427.52 805.454C1427.52 805.41 1427.52 805.367 1427.52 805.324C1427.52 805.282 1427.52 805.24 1427.52 805.199C1427.52 805.158 1427.52 805.118 1427.52 805.079C1427.52 805.04 1427.51 805.001 1427.51 804.963C1427.51 804.925 1427.51 804.887 1427.51 804.851C1427.51 804.814 1427.51 804.778 1427.51 804.743C1427.51 804.708 1427.51 804.674 1427.51 804.641C1427.51 804.607 1427.51 804.573 1427.51 804.541C1427.51 804.527 1427.51 804.514 1427.51 804.5H1516.49Z" fill="#0C3D53" stroke="#082A3C" stroke-width="3"/>
<circle cx="1472.5" cy="757.5" r="65.5" fill="#0C3D53"/>
<path d="M1371.4 1131V997L1339.4 997C1240.9 997 1139 1084 1139 1205.5C1139 1455.5 1612 1550 1612 1715.5C1612 1881 1304 1933.5 1304 2132.5C1304 2331.5 1530.5 2327 1530.5 2432V2546C1596 2546 1596 2480 1596 2432C1596 2292.5 1384.5 2236.5 1384.5 2132.5C1384.5 2028.5 1712.25 1937 1712.25 1715.5C1712.25 1494 1243.9 1325.5 1243.9 1205.5C1243.9 1162.5 1287.4 1131 1305.4 1131H1371.4Z" fill="#143B52" stroke="#082834"/>
<path d="M1571.85 1131V997L1603.85 997C1702.35 997 1804.25 1084 1804.25 1205.5C1804.25 1455.5 1331.25 1550 1331.25 1715.5C1331.25 1881 1639.25 1933.5 1639.25 2132.5C1639.25 2331.5 1412.75 2327 1412.75 2432V2546C1347.25 2546 1347.25 2480 1347.25 2432C1347.25 2292.5 1558.75 2236.5 1558.75 2132.5C1558.75 2028.5 1231 1937 1231 1715.5C1231 1494 1699.35 1325.5 1699.35 1205.5C1699.35 1162.5 1655.85 1131 1637.85 1131H1571.85Z" fill="#143B52" stroke="#082834"/>
<path d="M759 692H1271.5C1271.5 783.5 1348 851 1374 855V939H1108.5C1080 939 1034 901.5 1034 869H954.5C916 869 884.5 828 884.5 794H833.5C795.5 794 759 752.5 759 724.5V692Z" fill="#123E54" stroke="#082A3C" stroke-width="7"/>
<path d="M2185.5 692H1673C1673 783.5 1596.5 851 1570.5 855V939H1836C1864.5 939 1910.5 901.5 1910.5 869H1990C2028.5 869 2060 828 2060 794H2111C2149 794 2185.5 752.5 2185.5 724.5V692Z" fill="#123E54" stroke="#082A3C" stroke-width="7"/>
</mask>
<g mask="url(#mask2_8_675)">
<circle cx="1472.5" cy="1472.5" r="1472.5" fill="url(#paint3_linear_8_675)"/>
</g>
</g>
<defs>
<linearGradient id="paint0_linear_8_675" x1="1472.5" y1="0" x2="1472.5" y2="2945" gradientUnits="userSpaceOnUse">
<stop stop-color="#267A95"/>
<stop offset="0.25" stop-color="#15435A"/>
<stop offset="0.5" stop-color="#123144"/>
<stop offset="1" stop-color="#102D3F"/>
</linearGradient>
<linearGradient id="paint1_linear_8_675" x1="1472.5" y1="0" x2="1472.5" y2="2945" gradientUnits="userSpaceOnUse">
<stop stop-color="#267A95"/>
<stop offset="0.25" stop-color="#15435A"/>
<stop offset="0.5" stop-color="#123144"/>
<stop offset="1" stop-color="#102D3F"/>
</linearGradient>
<radialGradient id="paint2_radial_8_675" cx="0" cy="0" r="1" gradientUnits="userSpaceOnUse" gradientTransform="translate(1428 492.5) rotate(75.0365) scale(172.344 165.836)">
<stop offset="0.0154361" stop-color="#2381B2"/>
<stop offset="1" stop-color="#0F374C"/>
</radialGradient>
<linearGradient id="paint3_linear_8_675" x1="1472.5" y1="0" x2="1472.5" y2="2945" gradientUnits="userSpaceOnUse">
<stop stop-color="#267A95"/>
<stop offset="0.25" stop-color="#15435A"/>
<stop offset="0.5" stop-color="#123144"/>
<stop offset="1" stop-color="#102D3F"/>
</linearGradient>
<clipPath id="clip0_8_675">
<rect width="2945" height="2945" fill="white"/>
</clipPath>
</defs>
</svg>
